<svg width="1024" height="753" viewBox="0 0 1024 753" fill="none" xmlns="http://www.w3.org/2000/svg">
<g opacity="0.2" filter="url(#filter0_f_175_198)">
<ellipse cx="472.5" cy="35" rx="670.5" ry="350" fill="#338AF3"/>
</g>
<path d="M-6.9651 271C-5.46978 271 -4.33781 271.63 -3.56919 272.891C-2.78659 274.138 -2.39529 275.953 -2.39529 278.336C-2.39529 280.719 -2.78659 282.541 -3.56919 283.802C-4.33781 285.063 -5.46978 285.693 -6.9651 285.693C-8.44644 285.693 -9.57841 285.063 -10.361 283.802C-11.1436 282.541 -11.5349 280.719 -11.5349 278.336C-11.5349 275.967 -11.1436 274.152 -10.361 272.891C-9.57841 271.63 -8.44644 271 -6.9651 271ZM-10.0466 278.336C-10.0466 280.026 -9.89285 281.35 -9.5854 282.306L-4.93174 273.099C-5.42087 272.448 -6.09865 272.122 -6.9651 272.122C-7.92937 272.122 -8.68401 272.635 -9.22904 273.66C-9.77406 274.672 -10.0466 276.23 -10.0466 278.336ZM-6.9651 284.55C-5.98685 284.55 -5.22522 284.044 -4.68019 283.033C-4.13517 282.008 -3.86266 280.442 -3.86266 278.336C-3.86266 276.549 -4.03735 275.163 -4.38672 274.18L-9.04037 283.469C-8.53728 284.19 -7.84552 284.55 -6.9651 284.55Z" fill="url(#paint0_linear_175_198)" fill-opacity="0.6"/>
<path d="M-5.70735 308.135H-2.62588V309.236H-10.6126V308.135H-7.04895V296.455L-10.4449 298.471L-11.0318 297.536L-6.83932 294.959H-5.70735V308.135Z" fill="url(#paint1_linear_175_198)" fill-opacity="0.6"/>
<path d="M-6.9651 318.502C-5.46978 318.502 -4.33781 319.133 -3.56919 320.393C-2.78659 321.64 -2.39529 323.455 -2.39529 325.838C-2.39529 328.221 -2.78659 330.043 -3.56919 331.304C-4.33781 332.565 -5.46978 333.195 -6.9651 333.195C-8.44644 333.195 -9.57841 332.565 -10.361 331.304C-11.1436 330.043 -11.5349 328.221 -11.5349 325.838C-11.5349 323.469 -11.1436 321.654 -10.361 320.393C-9.57841 319.133 -8.44644 318.502 -6.9651 318.502ZM-10.0466 325.838C-10.0466 327.529 -9.89285 328.852 -9.5854 329.808L-4.93174 320.601C-5.42087 319.95 -6.09865 319.624 -6.9651 319.624C-7.92937 319.624 -8.68401 320.137 -9.22904 321.162C-9.77406 322.174 -10.0466 323.732 -10.0466 325.838ZM-6.9651 332.052C-5.98685 332.052 -5.22522 331.546 -4.68019 330.535C-4.13517 329.51 -3.86266 327.944 -3.86266 325.838C-3.86266 324.051 -4.03735 322.665 -4.38672 321.682L-9.04037 330.971C-8.53728 331.692 -7.84552 332.052 -6.9651 332.052Z" fill="url(#paint2_linear_175_198)" fill-opacity="0.6"/>
<path d="M-5.70735 355.637H-2.62588V356.738H-10.6126V355.637H-7.04895V343.957L-10.4449 345.973L-11.0318 345.038L-6.83932 342.461H-5.70735V355.637Z" fill="url(#paint3_linear_175_198)" fill-opacity="0.6"/>
<path d="M-5.70735 379.388H-2.62588V380.489H-10.6126V379.388H-7.04895V367.708L-10.4449 369.724L-11.0318 368.789L-6.83932 366.212H-5.70735V379.388Z" fill="url(#paint4_linear_175_198)" fill-opacity="0.6"/>
<path d="M-6.9651 389.755C-5.46978 389.755 -4.33781 390.386 -3.56919 391.646C-2.78659 392.893 -2.39529 394.708 -2.39529 397.091C-2.39529 399.474 -2.78659 401.296 -3.56919 402.557C-4.33781 403.818 -5.46978 404.448 -6.9651 404.448C-8.44644 404.448 -9.57841 403.818 -10.361 402.557C-11.1436 401.296 -11.5349 399.474 -11.5349 397.091C-11.5349 394.722 -11.1436 392.907 -10.361 391.646C-9.57841 390.386 -8.44644 389.755 -6.9651 389.755ZM-10.0466 397.091C-10.0466 398.782 -9.89285 400.105 -9.5854 401.061L-4.93174 391.854C-5.42087 391.203 -6.09865 390.878 -6.9651 390.878C-7.92937 390.878 -8.68401 391.39 -9.22904 392.415C-9.77406 393.427 -10.0466 394.985 -10.0466 397.091ZM-6.9651 403.305C-5.98685 403.305 -5.22522 402.8 -4.68019 401.788C-4.13517 400.763 -3.86266 399.197 -3.86266 397.091C-3.86266 395.304 -4.03735 393.919 -4.38672 392.935L-9.04037 402.225C-8.53728 402.945 -7.84552 403.305 -6.9651 403.305Z" fill="url(#paint5_linear_175_198)" fill-opacity="0.6"/>
<path d="M-5.70735 426.89H-2.62588V427.992H-10.6126V426.89H-7.04895V415.21L-10.4449 417.226L-11.0318 416.291L-6.83932 413.714H-5.70735V426.89Z" fill="url(#paint6_linear_175_198)" fill-opacity="0.6"/>
<path d="M-6.9651 437.257C-5.46978 437.257 -4.33781 437.888 -3.56919 439.149C-2.78659 440.396 -2.39529 442.211 -2.39529 444.594C-2.39529 446.977 -2.78659 448.798 -3.56919 450.059C-4.33781 451.32 -5.46978 451.95 -6.9651 451.95C-8.44644 451.95 -9.57841 451.32 -10.361 450.059C-11.1436 448.798 -11.5349 446.977 -11.5349 444.594C-11.5349 442.224 -11.1436 440.409 -10.361 439.149C-9.57841 437.888 -8.44644 437.257 -6.9651 437.257ZM-10.0466 444.594C-10.0466 446.284 -9.89285 447.607 -9.5854 448.563L-4.93174 439.356C-5.42087 438.705 -6.09865 438.38 -6.9651 438.38C-7.92937 438.38 -8.68401 438.892 -9.22904 439.918C-9.77406 440.929 -10.0466 442.488 -10.0466 444.594ZM-6.9651 450.807C-5.98685 450.807 -5.22522 450.302 -4.68019 449.29C-4.13517 448.265 -3.86266 446.699 -3.86266 444.594C-3.86266 442.806 -4.03735 441.421 -4.38672 440.437L-9.04037 449.727C-8.53728 450.447 -7.84552 450.807 -6.9651 450.807Z" fill="url(#paint7_linear_175_198)" fill-opacity="0.6"/>
<path d="M-6.9651 461.008C-5.46978 461.008 -4.33781 461.639 -3.56919 462.9C-2.78659 464.147 -2.39529 465.962 -2.39529 468.345C-2.39529 470.728 -2.78659 472.549 -3.56919 473.81C-4.33781 475.071 -5.46978 475.701 -6.9651 475.701C-8.44644 475.701 -9.57841 475.071 -10.361 473.81C-11.1436 472.549 -11.5349 470.728 -11.5349 468.345C-11.5349 465.975 -11.1436 464.16 -10.361 462.9C-9.57841 461.639 -8.44644 461.008 -6.9651 461.008ZM-10.0466 468.345C-10.0466 470.035 -9.89285 471.358 -9.5854 472.314L-4.93174 463.107C-5.42087 462.456 -6.09865 462.131 -6.9651 462.131C-7.92937 462.131 -8.68401 462.643 -9.22904 463.669C-9.77406 464.68 -10.0466 466.239 -10.0466 468.345ZM-6.9651 474.558C-5.98685 474.558 -5.22522 474.053 -4.68019 473.041C-4.13517 472.016 -3.86266 470.451 -3.86266 468.345C-3.86266 466.557 -4.03735 465.172 -4.38672 464.188L-9.04037 473.478C-8.53728 474.198 -7.84552 474.558 -6.9651 474.558Z" fill="url(#paint8_linear_175_198)" fill-opacity="0.6"/>
<path d="M-5.70735 498.143H-2.62588V499.245H-10.6126V498.143H-7.04895V486.464L-10.4449 488.48L-11.0318 487.544L-6.83932 484.967H-5.70735V498.143Z" fill="url(#paint9_linear_175_198)" fill-opacity="0.6"/>
<path d="M-6.9651 508.511C-5.46978 508.511 -4.33781 509.141 -3.56919 510.402C-2.78659 511.649 -2.39529 513.464 -2.39529 515.847C-2.39529 518.23 -2.78659 520.052 -3.56919 521.312C-4.33781 522.573 -5.46978 523.204 -6.9651 523.204C-8.44644 523.204 -9.57841 522.573 -10.361 521.312C-11.1436 520.052 -11.5349 518.23 -11.5349 515.847C-11.5349 513.478 -11.1436 511.663 -10.361 510.402C-9.57841 509.141 -8.44644 508.511 -6.9651 508.511ZM-10.0466 515.847C-10.0466 517.537 -9.89285 518.86 -9.5854 519.816L-4.93174 510.61C-5.42087 509.958 -6.09865 509.633 -6.9651 509.633C-7.92937 509.633 -8.68401 510.145 -9.22904 511.171C-9.77406 512.182 -10.0466 513.741 -10.0466 515.847ZM-6.9651 522.061C-5.98685 522.061 -5.22522 521.555 -4.68019 520.543C-4.13517 519.518 -3.86266 517.953 -3.86266 515.847C-3.86266 514.059 -4.03735 512.674 -4.38672 511.69L-9.04037 520.98C-8.53728 521.7 -7.84552 522.061 -6.9651 522.061Z" fill="url(#paint10_linear_175_198)" fill-opacity="0.6"/>
<path d="M-5.70735 545.645H-2.62588V546.747H-10.6126V545.645H-7.04895V533.966L-10.4449 535.982L-11.0318 535.046L-6.83932 532.469H-5.70735V545.645Z" fill="url(#paint11_linear_175_198)" fill-opacity="0.6"/>
<path d="M-5.70735 569.396H-2.62588V570.498H-10.6126V569.396H-7.04895V557.717L-10.4449 559.733L-11.0318 558.798L-6.83932 556.221H-5.70735V569.396Z" fill="url(#paint12_linear_175_198)" fill-opacity="0.6"/>
<path d="M31.9651 318.502C33.4604 318.502 34.5924 319.133 35.361 320.393C36.1436 321.64 36.5349 323.455 36.5349 325.838C36.5349 328.221 36.1436 330.043 35.361 331.304C34.5924 332.565 33.4604 333.195 31.9651 333.195C30.4838 333.195 29.3518 332.565 28.5692 331.304C27.7866 330.043 27.3953 328.221 27.3953 325.838C27.3953 323.469 27.7866 321.654 28.5692 320.393C29.3518 319.133 30.4838 318.502 31.9651 318.502ZM28.8836 325.838C28.8836 327.529 29.0374 328.852 29.3448 329.808L33.9985 320.601C33.5093 319.95 32.8315 319.624 31.9651 319.624C31.0008 319.624 30.2462 320.137 29.7012 321.162C29.1561 322.174 28.8836 323.732 28.8836 325.838ZM31.9651 332.052C32.9433 332.052 33.705 331.546 34.25 330.535C34.795 329.51 35.0675 327.944 35.0675 325.838C35.0675 324.051 34.8928 322.665 34.5435 321.682L29.8898 330.971C30.3929 331.692 31.0847 332.052 31.9651 332.052Z" fill="url(#paint13_linear_175_198)" fill-opacity="0.6"/>
<path d="M33.2228 355.637H36.3043V356.738H28.3176V355.637H31.8812V343.957L28.4853 345.973L27.8984 345.038L32.0909 342.461H33.2228V355.637Z" fill="url(#paint14_linear_175_198)" fill-opacity="0.6"/>
<path d="M31.9651 366.004C33.4604 366.004 34.5924 366.635 35.361 367.895C36.1436 369.142 36.5349 370.957 36.5349 373.34C36.5349 375.723 36.1436 377.545 35.361 378.806C34.5924 380.067 33.4604 380.697 31.9651 380.697C30.4838 380.697 29.3518 380.067 28.5692 378.806C27.7866 377.545 27.3953 375.723 27.3953 373.34C27.3953 370.971 27.7866 369.156 28.5692 367.895C29.3518 366.635 30.4838 366.004 31.9651 366.004ZM28.8836 373.34C28.8836 375.031 29.0374 376.354 29.3448 377.31L33.9985 368.103C33.5093 367.452 32.8315 367.126 31.9651 367.126C31.0008 367.126 30.2462 367.639 29.7012 368.664C29.1561 369.676 28.8836 371.234 28.8836 373.34ZM31.9651 379.554C32.9433 379.554 33.705 379.049 34.25 378.037C34.795 377.012 35.0675 375.446 35.0675 373.34C35.0675 371.553 34.8928 370.168 34.5435 369.184L29.8898 378.474C30.3929 379.194 31.0847 379.554 31.9651 379.554Z" fill="url(#paint15_linear_175_198)" fill-opacity="0.6"/>
<path d="M31.9651 389.755C33.4604 389.755 34.5924 390.386 35.361 391.646C36.1436 392.893 36.5349 394.708 36.5349 397.091C36.5349 399.474 36.1436 401.296 35.361 402.557C34.5924 403.818 33.4604 404.448 31.9651 404.448C30.4838 404.448 29.3518 403.818 28.5692 402.557C27.7866 401.296 27.3953 399.474 27.3953 397.091C27.3953 394.722 27.7866 392.907 28.5692 391.646C29.3518 390.386 30.4838 389.755 31.9651 389.755ZM28.8836 397.091C28.8836 398.782 29.0374 400.105 29.3448 401.061L33.9985 391.854C33.5093 391.203 32.8315 390.878 31.9651 390.878C31.0008 390.878 30.2462 391.39 29.7012 392.415C29.1561 393.427 28.8836 394.985 28.8836 397.091ZM31.9651 403.305C32.9433 403.305 33.705 402.8 34.25 401.788C34.795 400.763 35.0675 399.197 35.0675 397.091C35.0675 395.304 34.8928 393.919 34.5435 392.935L29.8898 402.225C30.3929 402.945 31.0847 403.305 31.9651 403.305Z" fill="url(#paint16_linear_175_198)" fill-opacity="0.6"/>
<path d="M33.2228 426.89H36.3043V427.992H28.3176V426.89H31.8812V415.21L28.4853 417.226L27.8984 416.291L32.0909 413.714H33.2228V426.89Z" fill="url(#paint17_linear_175_198)" fill-opacity="0.6"/>
<path d="M31.9651 437.257C33.4604 437.257 34.5924 437.888 35.361 439.149C36.1436 440.396 36.5349 442.211 36.5349 444.594C36.5349 446.977 36.1436 448.798 35.361 450.059C34.5924 451.32 33.4604 451.95 31.9651 451.95C30.4838 451.95 29.3518 451.32 28.5692 450.059C27.7866 448.798 27.3953 446.977 27.3953 444.594C27.3953 442.224 27.7866 440.409 28.5692 439.149C29.3518 437.888 30.4838 437.257 31.9651 437.257ZM28.8836 444.594C28.8836 446.284 29.0374 447.607 29.3448 448.563L33.9985 439.356C33.5093 438.705 32.8315 438.38 31.9651 438.38C31.0008 438.38 30.2462 438.892 29.7012 439.918C29.1561 440.929 28.8836 442.488 28.8836 444.594ZM31.9651 450.807C32.9433 450.807 33.705 450.302 34.25 449.29C34.795 448.265 35.0675 446.699 35.0675 444.594C35.0675 442.806 34.8928 441.421 34.5435 440.437L29.8898 449.727C30.3929 450.447 31.0847 450.807 31.9651 450.807Z" fill="url(#paint18_linear_175_198)" fill-opacity="0.6"/>
<path d="M33.2228 474.392H36.3043V475.494H28.3176V474.392H31.8812V462.713L28.4853 464.728L27.8984 463.793L32.0909 461.216H33.2228V474.392Z" fill="url(#paint19_linear_175_198)" fill-opacity="0.6"/>
<path d="M31.9651 484.76C33.4604 484.76 34.5924 485.39 35.361 486.651C36.1436 487.898 36.5349 489.713 36.5349 492.096C36.5349 494.479 36.1436 496.301 35.361 497.561C34.5924 498.822 33.4604 499.453 31.9651 499.453C30.4838 499.453 29.3518 498.822 28.5692 497.561C27.7866 496.301 27.3953 494.479 27.3953 492.096C27.3953 489.726 27.7866 487.911 28.5692 486.651C29.3518 485.39 30.4838 484.76 31.9651 484.76ZM28.8836 492.096C28.8836 493.786 29.0374 495.109 29.3448 496.065L33.9985 486.859C33.5093 486.207 32.8315 485.882 31.9651 485.882C31.0008 485.882 30.2462 486.394 29.7012 487.42C29.1561 488.431 28.8836 489.99 28.8836 492.096ZM31.9651 498.31C32.9433 498.31 33.705 497.804 34.25 496.792C34.795 495.767 35.0675 494.202 35.0675 492.096C35.0675 490.308 34.8928 488.923 34.5435 487.939L29.8898 497.229C30.3929 497.949 31.0847 498.31 31.9651 498.31Z" fill="url(#paint20_linear_175_198)" fill-opacity="0.6"/>
<path d="M31.9651 508.511C33.4604 508.511 34.5924 509.141 35.361 510.402C36.1436 511.649 36.5349 513.464 36.5349 515.847C36.5349 518.23 36.1436 520.052 35.361 521.312C34.5924 522.573 33.4604 523.204 31.9651 523.204C30.4838 523.204 29.3518 522.573 28.5692 521.312C27.7866 520.052 27.3953 518.23 27.3953 515.847C27.3953 513.478 27.7866 511.663 28.5692 510.402C29.3518 509.141 30.4838 508.511 31.9651 508.511ZM28.8836 515.847C28.8836 517.537 29.0374 518.86 29.3448 519.816L33.9985 510.61C33.5093 509.958 32.8315 509.633 31.9651 509.633C31.0008 509.633 30.2462 510.145 29.7012 511.171C29.1561 512.182 28.8836 513.741 28.8836 515.847ZM31.9651 522.061C32.9433 522.061 33.705 521.555 34.25 520.543C34.795 519.518 35.0675 517.953 35.0675 515.847C35.0675 514.059 34.8928 512.674 34.5435 511.69L29.8898 520.98C30.3929 521.7 31.0847 522.061 31.9651 522.061Z" fill="url(#paint21_linear_175_198)" fill-opacity="0.6"/>
<path d="M33.2228 545.645H36.3043V546.747H28.3176V545.645H31.8812V533.966L28.4853 535.982L27.8984 535.046L32.0909 532.469H33.2228V545.645Z" fill="url(#paint22_linear_175_198)" fill-opacity="0.6"/>
<path d="M31.9651 556.013C33.4604 556.013 34.5924 556.643 35.361 557.904C36.1436 559.151 36.5349 560.966 36.5349 563.349C36.5349 565.732 36.1436 567.554 35.361 568.815C34.5924 570.075 33.4604 570.706 31.9651 570.706C30.4838 570.706 29.3518 570.075 28.5692 568.815C27.7866 567.554 27.3953 565.732 27.3953 563.349C27.3953 560.98 27.7866 559.165 28.5692 557.904C29.3518 556.643 30.4838 556.013 31.9651 556.013ZM28.8836 563.349C28.8836 565.039 29.0374 566.362 29.3448 567.318L33.9985 558.112C33.5093 557.461 32.8315 557.135 31.9651 557.135C31.0008 557.135 30.2462 557.648 29.7012 558.673C29.1561 559.684 28.8836 561.243 28.8836 563.349ZM31.9651 569.563C32.9433 569.563 33.705 569.057 34.25 568.046C34.795 567.02 35.0675 565.455 35.0675 563.349C35.0675 561.562 34.8928 560.176 34.5435 559.192L29.8898 568.482C30.3929 569.202 31.0847 569.563 31.9651 569.563Z" fill="url(#paint23_linear_175_198)" fill-opacity="0.6"/>
<path d="M33.2228 593.148H36.3043V594.249H28.3176V593.148H31.8812V581.468L28.4853 583.484L27.8984 582.549L32.0909 579.972H33.2228V593.148Z" fill="url(#paint24_linear_175_198)" fill-opacity="0.6"/>
<path d="M33.2228 616.899H36.3043V618H28.3176V616.899H31.8812V605.219L28.4853 607.235L27.8984 606.3L32.0909 603.723H33.2228V616.899Z" fill="url(#paint25_linear_175_198)" fill-opacity="0.6"/>
<path d="M-26.4302 342.253C-24.9349 342.253 -23.8029 342.884 -23.0343 344.144C-22.2517 345.391 -21.8604 347.206 -21.8604 349.589C-21.8604 351.972 -22.2517 353.794 -23.0343 355.055C-23.8029 356.316 -24.9349 356.946 -26.4302 356.946C-27.9115 356.946 -29.0435 356.316 -29.8261 355.055C-30.6087 353.794 -31 351.972 -31 349.589C-31 347.22 -30.6087 345.405 -29.8261 344.144C-29.0435 342.884 -27.9115 342.253 -26.4302 342.253ZM-29.5117 349.589C-29.5117 351.28 -29.3579 352.603 -29.0505 353.559L-24.3968 344.352C-24.886 343.701 -25.5637 343.375 -26.4302 343.375C-27.3945 343.375 -28.1491 343.888 -28.6941 344.913C-29.2392 345.925 -29.5117 347.483 -29.5117 349.589ZM-26.4302 355.803C-25.4519 355.803 -24.6903 355.297 -24.1453 354.286C-23.6003 353.261 -23.3278 351.695 -23.3278 349.589C-23.3278 347.802 -23.5024 346.417 -23.8518 345.433L-28.5055 354.722C-28.0024 355.443 -27.3106 355.803 -26.4302 355.803Z" fill="url(#paint26_linear_175_198)" fill-opacity="0.6"/>
<path d="M-26.4302 366.004C-24.9349 366.004 -23.8029 366.635 -23.0343 367.895C-22.2517 369.142 -21.8604 370.957 -21.8604 373.34C-21.8604 375.723 -22.2517 377.545 -23.0343 378.806C-23.8029 380.067 -24.9349 380.697 -26.4302 380.697C-27.9115 380.697 -29.0435 380.067 -29.8261 378.806C-30.6087 377.545 -31 375.723 -31 373.34C-31 370.971 -30.6087 369.156 -29.8261 367.895C-29.0435 366.635 -27.9115 366.004 -26.4302 366.004ZM-29.5117 373.34C-29.5117 375.031 -29.3579 376.354 -29.0505 377.31L-24.3968 368.103C-24.886 367.452 -25.5637 367.126 -26.4302 367.126C-27.3945 367.126 -28.1491 367.639 -28.6941 368.664C-29.2392 369.676 -29.5117 371.234 -29.5117 373.34ZM-26.4302 379.554C-25.4519 379.554 -24.6903 379.049 -24.1453 378.037C-23.6003 377.012 -23.3278 375.446 -23.3278 373.34C-23.3278 371.553 -23.5024 370.168 -23.8518 369.184L-28.5055 378.474C-28.0024 379.194 -27.3106 379.554 -26.4302 379.554Z" fill="url(#paint27_linear_175_198)" fill-opacity="0.6"/>
<path d="M-25.1724 403.139H-22.091V404.24H-30.0777V403.139H-26.514V391.459L-29.91 393.475L-30.4969 392.54L-26.3044 389.963H-25.1724V403.139Z" fill="url(#paint28_linear_175_198)" fill-opacity="0.6"/>
<path d="M-26.4302 413.506C-24.9349 413.506 -23.8029 414.137 -23.0343 415.398C-22.2517 416.644 -21.8604 418.459 -21.8604 420.842C-21.8604 423.225 -22.2517 425.047 -23.0343 426.308C-23.8029 427.569 -24.9349 428.199 -26.4302 428.199C-27.9115 428.199 -29.0435 427.569 -29.8261 426.308C-30.6087 425.047 -31 423.225 -31 420.842C-31 418.473 -30.6087 416.658 -29.8261 415.398C-29.0435 414.137 -27.9115 413.506 -26.4302 413.506ZM-29.5117 420.842C-29.5117 422.533 -29.3579 423.856 -29.0505 424.812L-24.3968 415.605C-24.886 414.954 -25.5637 414.629 -26.4302 414.629C-27.3945 414.629 -28.1491 415.141 -28.6941 416.166C-29.2392 417.178 -29.5117 418.737 -29.5117 420.842ZM-26.4302 427.056C-25.4519 427.056 -24.6903 426.551 -24.1453 425.539C-23.6003 424.514 -23.3278 422.948 -23.3278 420.842C-23.3278 419.055 -23.5024 417.67 -23.8518 416.686L-28.5055 425.976C-28.0024 426.696 -27.3106 427.056 -26.4302 427.056Z" fill="url(#paint29_linear_175_198)" fill-opacity="0.6"/>
<path d="M-25.1724 450.641H-22.091V451.743H-30.0777V450.641H-26.514V438.962L-29.91 440.977L-30.4969 440.042L-26.3044 437.465H-25.1724V450.641Z" fill="url(#paint30_linear_175_198)" fill-opacity="0.6"/>
<path d="M-25.1724 474.392H-22.091V475.494H-30.0777V474.392H-26.514V462.713L-29.91 464.728L-30.4969 463.793L-26.3044 461.216H-25.1724V474.392Z" fill="url(#paint31_linear_175_198)" fill-opacity="0.6"/>
<path d="M13.7577 308.135H16.8392V309.236H8.85254V308.135H12.4162V296.455L9.02024 298.471L8.43329 297.536L12.6258 294.959H13.7577V308.135Z" fill="url(#paint32_linear_175_198)" fill-opacity="0.6"/>
<path d="M12.5 318.502C13.9953 318.502 15.1273 319.133 15.8959 320.393C16.6785 321.64 17.0698 323.455 17.0698 325.838C17.0698 328.221 16.6785 330.043 15.8959 331.304C15.1273 332.565 13.9953 333.195 12.5 333.195C11.0187 333.195 9.88669 332.565 9.10409 331.304C8.32149 330.043 7.93019 328.221 7.93019 325.838C7.93019 323.469 8.32149 321.654 9.10409 320.393C9.88669 319.133 11.0187 318.502 12.5 318.502ZM9.41852 325.838C9.41852 327.529 9.57225 328.852 9.8797 329.808L14.5334 320.601C14.0442 319.95 13.3664 319.624 12.5 319.624C11.5357 319.624 10.7811 320.137 10.2361 321.162C9.69104 322.174 9.41852 323.732 9.41852 325.838ZM12.5 332.052C13.4782 332.052 14.2399 331.546 14.7849 330.535C15.3299 329.51 15.6024 327.944 15.6024 325.838C15.6024 324.051 15.4277 322.665 15.0784 321.682L10.4247 330.971C10.9278 331.692 11.6196 332.052 12.5 332.052Z" fill="url(#paint33_linear_175_198)" fill-opacity="0.6"/>
<path d="M13.7577 355.637H16.8392V356.738H8.85254V355.637H12.4162V343.957L9.02024 345.973L8.43329 345.038L12.6258 342.461H13.7577V355.637Z" fill="url(#paint34_linear_175_198)" fill-opacity="0.6"/>
<path d="M13.7577 379.388H16.8392V380.489H8.85254V379.388H12.4162V367.708L9.02024 369.724L8.43329 368.789L12.6258 366.212H13.7577V379.388Z" fill="url(#paint35_linear_175_198)" fill-opacity="0.6"/>
<path d="M12.5 389.755C13.9953 389.755 15.1273 390.386 15.8959 391.646C16.6785 392.893 17.0698 394.708 17.0698 397.091C17.0698 399.474 16.6785 401.296 15.8959 402.557C15.1273 403.818 13.9953 404.448 12.5 404.448C11.0187 404.448 9.88669 403.818 9.10409 402.557C8.32149 401.296 7.93019 399.474 7.93019 397.091C7.93019 394.722 8.32149 392.907 9.10409 391.646C9.88669 390.386 11.0187 389.755 12.5 389.755ZM9.41852 397.091C9.41852 398.782 9.57225 400.105 9.8797 401.061L14.5334 391.854C14.0442 391.203 13.3664 390.878 12.5 390.878C11.5357 390.878 10.7811 391.39 10.2361 392.415C9.69104 393.427 9.41852 394.985 9.41852 397.091ZM12.5 403.305C13.4782 403.305 14.2399 402.8 14.7849 401.788C15.3299 400.763 15.6024 399.197 15.6024 397.091C15.6024 395.304 15.4277 393.919 15.0784 392.935L10.4247 402.225C10.9278 402.945 11.6196 403.305 12.5 403.305Z" fill="url(#paint36_linear_175_198)" fill-opacity="0.6"/>
<path d="M13.7577 426.89H16.8392V427.992H8.85254V426.89H12.4162V415.21L9.02024 417.226L8.43329 416.291L12.6258 413.714H13.7577V426.89Z" fill="url(#paint37_linear_175_198)" fill-opacity="0.6"/>
<path d="M13.7577 450.641H16.8392V451.743H8.85254V450.641H12.4162V438.962L9.02024 440.977L8.43329 440.042L12.6258 437.465H13.7577V450.641Z" fill="url(#paint38_linear_175_198)" fill-opacity="0.6"/>
<path d="M12.5 461.008C13.9953 461.008 15.1273 461.639 15.8959 462.9C16.6785 464.147 17.0698 465.962 17.0698 468.345C17.0698 470.728 16.6785 472.549 15.8959 473.81C15.1273 475.071 13.9953 475.701 12.5 475.701C11.0187 475.701 9.88669 475.071 9.10409 473.81C8.32149 472.549 7.93019 470.728 7.93019 468.345C7.93019 465.975 8.32149 464.16 9.10409 462.9C9.88669 461.639 11.0187 461.008 12.5 461.008ZM9.41852 468.345C9.41852 470.035 9.57225 471.358 9.8797 472.314L14.5334 463.107C14.0442 462.456 13.3664 462.131 12.5 462.131C11.5357 462.131 10.7811 462.643 10.2361 463.669C9.69104 464.68 9.41852 466.239 9.41852 468.345ZM12.5 474.558C13.4782 474.558 14.2399 474.053 14.7849 473.041C15.3299 472.016 15.6024 470.451 15.6024 468.345C15.6024 466.557 15.4277 465.172 15.0784 464.188L10.4247 473.478C10.9278 474.198 11.6196 474.558 12.5 474.558Z" fill="url(#paint39_linear_175_198)" fill-opacity="0.6"/>
<path d="M13.7577 498.143H16.8392V499.245H8.85254V498.143H12.4162V486.464L9.02024 488.48L8.43329 487.544L12.6258 484.967H13.7577V498.143Z" fill="url(#paint40_linear_175_198)" fill-opacity="0.6"/>
<path d="M12.5 508.511C13.9953 508.511 15.1273 509.141 15.8959 510.402C16.6785 511.649 17.0698 513.464 17.0698 515.847C17.0698 518.23 16.6785 520.052 15.8959 521.312C15.1273 522.573 13.9953 523.204 12.5 523.204C11.0187 523.204 9.88669 522.573 9.10409 521.312C8.32149 520.052 7.93019 518.23 7.93019 515.847C7.93019 513.478 8.32149 511.663 9.10409 510.402C9.88669 509.141 11.0187 508.511 12.5 508.511ZM9.41852 515.847C9.41852 517.537 9.57225 518.86 9.8797 519.816L14.5334 510.61C14.0442 509.958 13.3664 509.633 12.5 509.633C11.5357 509.633 10.7811 510.145 10.2361 511.171C9.69104 512.182 9.41852 513.741 9.41852 515.847ZM12.5 522.061C13.4782 522.061 14.2399 521.555 14.7849 520.543C15.3299 519.518 15.6024 517.953 15.6024 515.847C15.6024 514.059 15.4277 512.674 15.0784 511.69L10.4247 520.98C10.9278 521.7 11.6196 522.061 12.5 522.061Z" fill="url(#paint41_linear_175_198)" fill-opacity="0.6"/>
<path d="M51.4302 294.751C52.9255 294.751 54.0575 295.381 54.8261 296.642C55.6087 297.889 56 299.704 56 302.087C56 304.47 55.6087 306.292 54.8261 307.553C54.0575 308.814 52.9255 309.444 51.4302 309.444C49.9489 309.444 48.8169 308.814 48.0343 307.553C47.2517 306.292 46.8604 304.47 46.8604 302.087C46.8604 299.718 47.2517 297.903 48.0343 296.642C48.8169 295.381 49.9489 294.751 51.4302 294.751ZM48.3487 302.087C48.3487 303.777 48.5024 305.101 48.8099 306.057L53.4636 296.85C52.9744 296.199 52.2966 295.873 51.4302 295.873C50.4659 295.873 49.7113 296.386 49.1663 297.411C48.6212 298.423 48.3487 299.981 48.3487 302.087ZM51.4302 308.301C52.4084 308.301 53.1701 307.795 53.7151 306.784C54.2601 305.759 54.5326 304.193 54.5326 302.087C54.5326 300.3 54.3579 298.914 54.0086 297.931L49.3549 307.22C49.858 307.941 50.5498 308.301 51.4302 308.301Z" fill="url(#paint42_linear_175_198)" fill-opacity="0.6"/>
<path d="M52.6879 331.886H55.7694V332.987H47.7827V331.886H51.3463V320.206L47.9504 322.222L47.3635 321.287L51.556 318.71H52.6879V331.886Z" fill="url(#paint43_linear_175_198)" fill-opacity="0.6"/>
<path d="M52.6879 355.637H55.7694V356.738H47.7827V355.637H51.3463V343.957L47.9504 345.973L47.3635 345.038L51.556 342.461H52.6879V355.637Z" fill="url(#paint44_linear_175_198)" fill-opacity="0.6"/>
<path d="M51.4302 366.004C52.9255 366.004 54.0575 366.635 54.8261 367.895C55.6087 369.142 56 370.957 56 373.34C56 375.723 55.6087 377.545 54.8261 378.806C54.0575 380.067 52.9255 380.697 51.4302 380.697C49.9489 380.697 48.8169 380.067 48.0343 378.806C47.2517 377.545 46.8604 375.723 46.8604 373.34C46.8604 370.971 47.2517 369.156 48.0343 367.895C48.8169 366.635 49.9489 366.004 51.4302 366.004ZM48.3487 373.34C48.3487 375.031 48.5024 376.354 48.8099 377.31L53.4636 368.103C52.9744 367.452 52.2966 367.126 51.4302 367.126C50.4659 367.126 49.7113 367.639 49.1663 368.664C48.6212 369.676 48.3487 371.234 48.3487 373.34ZM51.4302 379.554C52.4084 379.554 53.1701 379.049 53.7151 378.037C54.2601 377.012 54.5326 375.446 54.5326 373.34C54.5326 371.553 54.3579 370.168 54.0086 369.184L49.3549 378.474C49.858 379.194 50.5498 379.554 51.4302 379.554Z" fill="url(#paint45_linear_175_198)" fill-opacity="0.6"/>
<path d="M51.4302 389.755C52.9255 389.755 54.0575 390.386 54.8261 391.646C55.6087 392.893 56 394.708 56 397.091C56 399.474 55.6087 401.296 54.8261 402.557C54.0575 403.818 52.9255 404.448 51.4302 404.448C49.9489 404.448 48.8169 403.818 48.0343 402.557C47.2517 401.296 46.8604 399.474 46.8604 397.091C46.8604 394.722 47.2517 392.907 48.0343 391.646C48.8169 390.386 49.9489 389.755 51.4302 389.755ZM48.3487 397.091C48.3487 398.782 48.5024 400.105 48.8099 401.061L53.4636 391.854C52.9744 391.203 52.2966 390.878 51.4302 390.878C50.4659 390.878 49.7113 391.39 49.1663 392.415C48.6212 393.427 48.3487 394.985 48.3487 397.091ZM51.4302 403.305C52.4084 403.305 53.1701 402.8 53.7151 401.788C54.2601 400.763 54.5326 399.197 54.5326 397.091C54.5326 395.304 54.3579 393.919 54.0086 392.935L49.3549 402.225C49.858 402.945 50.5498 403.305 51.4302 403.305Z" fill="url(#paint46_linear_175_198)" fill-opacity="0.6"/>
<g opacity="0.6">
<path d="M879.93 -29C881.356 -29 882.436 -28.395 883.17 -27.1851C883.916 -25.9885 884.29 -24.2468 884.29 -21.9599C884.29 -19.673 883.916 -17.9246 883.17 -16.7147C882.436 -15.5048 881.356 -14.8998 879.93 -14.8998C878.517 -14.8998 877.437 -15.5048 876.69 -16.7147C875.943 -17.9246 875.57 -19.673 875.57 -21.9599C875.57 -24.2335 875.943 -25.9752 876.69 -27.1851C877.437 -28.395 878.517 -29 879.93 -29ZM876.99 -21.9599C876.99 -20.3378 877.137 -19.068 877.43 -18.1506L881.87 -26.9857C881.403 -27.6106 880.756 -27.923 879.93 -27.923C879.01 -27.923 878.29 -27.4311 877.77 -26.4472C877.25 -25.4766 876.99 -23.9808 876.99 -21.9599ZM879.93 -15.9967C880.863 -15.9967 881.59 -16.482 882.11 -17.4526C882.63 -18.4365 882.89 -19.9389 882.89 -21.9599C882.89 -23.675 882.723 -25.0046 882.39 -25.9486L877.95 -17.0338C878.43 -16.3424 879.09 -15.9967 879.93 -15.9967Z" fill="url(#paint47_linear_175_198)"/>
<path d="M881.13 6.63655H884.07V7.69356H876.45V6.63655H879.85V-4.57181L876.61 -2.63727L876.05 -3.53474L880.05 -6.00776H881.13V6.63655Z" fill="url(#paint48_linear_175_198)"/>
<path d="M879.93 16.5856C881.356 16.5856 882.436 17.1906 883.17 18.4005C883.916 19.5971 884.29 21.3389 884.29 23.6257C884.29 25.9126 883.916 27.661 883.17 28.8709C882.436 30.0808 881.356 30.6858 879.93 30.6858C878.517 30.6858 877.437 30.0808 876.69 28.8709C875.943 27.661 875.57 25.9126 875.57 23.6257C875.57 21.3522 875.943 19.6104 876.69 18.4005C877.437 17.1906 878.517 16.5856 879.93 16.5856ZM876.99 23.6257C876.99 25.2478 877.137 26.5176 877.43 27.435L881.87 18.5999C881.403 17.975 880.756 17.6626 879.93 17.6626C879.01 17.6626 878.29 18.1545 877.77 19.1384C877.25 20.109 876.99 21.6048 876.99 23.6257ZM879.93 29.5889C880.863 29.5889 881.59 29.1036 882.11 28.133C882.63 27.1491 882.89 25.6467 882.89 23.6257C882.89 21.9106 882.723 20.581 882.39 19.637L877.95 28.5518C878.43 29.2432 879.09 29.5889 879.93 29.5889Z" fill="url(#paint49_linear_175_198)"/>
<path d="M881.13 52.2221H884.07V53.2792H876.45V52.2221H879.85V41.0138L876.61 42.9483L876.05 42.0509L880.05 39.5778H881.13V52.2221Z" fill="url(#paint50_linear_175_198)"/>
<path d="M881.13 75.015H884.07V76.072H876.45V75.015H879.85V63.8066L876.61 65.7411L876.05 64.8437L880.05 62.3706H881.13V75.015Z" fill="url(#paint51_linear_175_198)"/>
<path d="M879.93 84.964C881.356 84.964 882.436 85.569 883.17 86.7789C883.916 87.9755 884.29 89.7173 884.29 92.0041C884.29 94.291 883.916 96.0394 883.17 97.2493C882.436 98.4593 881.356 99.0642 879.93 99.0642C878.517 99.0642 877.437 98.4593 876.69 97.2493C875.943 96.0394 875.57 94.291 875.57 92.0041C875.57 89.7306 875.943 87.9888 876.69 86.7789C877.437 85.569 878.517 84.964 879.93 84.964ZM876.99 92.0041C876.99 93.6262 877.137 94.896 877.43 95.8134L881.87 86.9783C881.403 86.3534 880.756 86.041 879.93 86.041C879.01 86.041 878.29 86.5329 877.77 87.5168C877.25 88.4874 876.99 89.9832 876.99 92.0041ZM879.93 97.9673C880.863 97.9673 881.59 97.482 882.11 96.5114C882.63 95.5275 882.89 94.0251 882.89 92.0041C882.89 90.289 882.723 88.9594 882.39 88.0154L877.95 96.9302C878.43 97.6216 879.09 97.9673 879.93 97.9673Z" fill="url(#paint52_linear_175_198)"/>
<path d="M881.13 120.601H884.07V121.658H876.45V120.601H879.85V109.392L876.61 111.327L876.05 110.429L880.05 107.956H881.13V120.601Z" fill="url(#paint53_linear_175_198)"/>
<path d="M879.93 130.55C881.356 130.55 882.436 131.155 883.17 132.365C883.916 133.561 884.29 135.303 884.29 137.59C884.29 139.877 883.916 141.625 883.17 142.835C882.436 144.045 881.356 144.65 879.93 144.65C878.517 144.65 877.437 144.045 876.69 142.835C875.943 141.625 875.57 139.877 875.57 137.59C875.57 135.316 875.943 133.574 876.69 132.365C877.437 131.155 878.517 130.55 879.93 130.55ZM876.99 137.59C876.99 139.212 877.137 140.482 877.43 141.399L881.87 132.564C881.403 131.939 880.756 131.627 879.93 131.627C879.01 131.627 878.29 132.119 877.77 133.102C877.25 134.073 876.99 135.569 876.99 137.59ZM879.93 143.553C880.863 143.553 881.59 143.068 882.11 142.097C882.63 141.113 882.89 139.611 882.89 137.59C882.89 135.875 882.723 134.545 882.39 133.601L877.95 142.516C878.43 143.207 879.09 143.553 879.93 143.553Z" fill="url(#paint54_linear_175_198)"/>
<path d="M879.93 153.342C881.356 153.342 882.436 153.947 883.17 155.157C883.916 156.354 884.29 158.096 884.29 160.383C884.29 162.669 883.916 164.418 883.17 165.628C882.436 166.838 881.356 167.443 879.93 167.443C878.517 167.443 877.437 166.838 876.69 165.628C875.943 164.418 875.57 162.669 875.57 160.383C875.57 158.109 875.943 156.367 876.69 155.157C877.437 153.947 878.517 153.342 879.93 153.342ZM876.99 160.383C876.99 162.005 877.137 163.274 877.43 164.192L881.87 155.357C881.403 154.732 880.756 154.419 879.93 154.419C879.01 154.419 878.29 154.911 877.77 155.895C877.25 156.866 876.99 158.362 876.99 160.383ZM879.93 166.346C880.863 166.346 881.59 165.86 882.11 164.89C882.63 163.906 882.89 162.404 882.89 160.383C882.89 158.667 882.723 157.338 882.39 156.394L877.95 165.309C878.43 166 879.09 166.346 879.93 166.346Z" fill="url(#paint55_linear_175_198)"/>
<path d="M881.13 188.979H884.07V190.036H876.45V188.979H879.85V177.771L876.61 179.705L876.05 178.808L880.05 176.335H881.13V188.979Z" fill="url(#paint56_linear_175_198)"/>
<path d="M879.93 198.928C881.356 198.928 882.436 199.533 883.17 200.743C883.916 201.94 884.29 203.681 884.29 205.968C884.29 208.255 883.916 210.003 883.17 211.213C882.436 212.423 881.356 213.028 879.93 213.028C878.517 213.028 877.437 212.423 876.69 211.213C875.943 210.003 875.57 208.255 875.57 205.968C875.57 203.695 875.943 201.953 876.69 200.743C877.437 199.533 878.517 198.928 879.93 198.928ZM876.99 205.968C876.99 207.59 877.137 208.86 877.43 209.777L881.87 200.942C881.403 200.317 880.756 200.005 879.93 200.005C879.01 200.005 878.29 200.497 877.77 201.481C877.25 202.451 876.99 203.947 876.99 205.968ZM879.93 211.931C880.863 211.931 881.59 211.446 882.11 210.475C882.63 209.492 882.89 207.989 882.89 205.968C882.89 204.253 882.723 202.923 882.39 201.979L877.95 210.894C878.43 211.586 879.09 211.931 879.93 211.931Z" fill="url(#paint57_linear_175_198)"/>
<path d="M881.13 234.565H884.07V235.622H876.45V234.565H879.85V223.356L876.61 225.291L876.05 224.393L880.05 221.92H881.13V234.565Z" fill="url(#paint58_linear_175_198)"/>
<path d="M881.13 257.357H884.07V258.414H876.45V257.357H879.85V246.149L876.61 248.084L876.05 247.186L880.05 244.713H881.13V257.357Z" fill="url(#paint59_linear_175_198)"/>
<path d="M917.07 16.5856C918.497 16.5856 919.577 17.1906 920.31 18.4005C921.057 19.5971 921.43 21.3389 921.43 23.6257C921.43 25.9126 921.057 27.661 920.31 28.8709C919.577 30.0808 918.497 30.6858 917.07 30.6858C915.657 30.6858 914.577 30.0808 913.83 28.8709C913.084 27.661 912.71 25.9126 912.71 23.6257C912.71 21.3522 913.084 19.6104 913.83 18.4005C914.577 17.1906 915.657 16.5856 917.07 16.5856ZM914.13 23.6257C914.13 25.2478 914.277 26.5176 914.57 27.435L919.01 18.5999C918.543 17.975 917.897 17.6626 917.07 17.6626C916.15 17.6626 915.43 18.1545 914.91 19.1384C914.39 20.109 914.13 21.6048 914.13 23.6257ZM917.07 29.5889C918.003 29.5889 918.73 29.1036 919.25 28.133C919.77 27.1491 920.03 25.6467 920.03 23.6257C920.03 21.9106 919.863 20.581 919.53 19.637L915.09 28.5518C915.57 29.2432 916.23 29.5889 917.07 29.5889Z" fill="url(#paint60_linear_175_198)"/>
<path d="M918.27 52.2221H921.21V53.2792H913.59V52.2221H916.99V41.0138L913.75 42.9483L913.19 42.0509L917.19 39.5778H918.27V52.2221Z" fill="url(#paint61_linear_175_198)"/>
<path d="M917.07 62.1712C918.497 62.1712 919.577 62.7762 920.31 63.9861C921.057 65.1827 921.43 66.9245 921.43 69.2113C921.43 71.4982 921.057 73.2466 920.31 74.4565C919.577 75.6664 918.497 76.2714 917.07 76.2714C915.657 76.2714 914.577 75.6664 913.83 74.4565C913.084 73.2466 912.71 71.4982 912.71 69.2113C912.71 66.9378 913.084 65.196 913.83 63.9861C914.577 62.7762 915.657 62.1712 917.07 62.1712ZM914.13 69.2113C914.13 70.8334 914.277 72.1032 914.57 73.0206L919.01 64.1855C918.543 63.5606 917.897 63.2482 917.07 63.2482C916.15 63.2482 915.43 63.7401 914.91 64.724C914.39 65.6946 914.13 67.1904 914.13 69.2113ZM917.07 75.1745C918.003 75.1745 918.73 74.6892 919.25 73.7186C919.77 72.7347 920.03 71.2323 920.03 69.2113C920.03 67.4962 919.863 66.1666 919.53 65.2226L915.09 74.1374C915.57 74.8288 916.23 75.1745 917.07 75.1745Z" fill="url(#paint62_linear_175_198)"/>
<path d="M917.07 84.964C918.497 84.964 919.577 85.569 920.31 86.7789C921.057 87.9755 921.43 89.7173 921.43 92.0041C921.43 94.291 921.057 96.0394 920.31 97.2493C919.577 98.4593 918.497 99.0642 917.07 99.0642C915.657 99.0642 914.577 98.4593 913.83 97.2493C913.084 96.0394 912.71 94.291 912.71 92.0041C912.71 89.7306 913.084 87.9888 913.83 86.7789C914.577 85.569 915.657 84.964 917.07 84.964ZM914.13 92.0041C914.13 93.6262 914.277 94.896 914.57 95.8134L919.01 86.9783C918.543 86.3534 917.897 86.041 917.07 86.041C916.15 86.041 915.43 86.5329 914.91 87.5168C914.39 88.4874 914.13 89.9832 914.13 92.0041ZM917.07 97.9673C918.003 97.9673 918.73 97.482 919.25 96.5114C919.77 95.5275 920.03 94.0251 920.03 92.0041C920.03 90.289 919.863 88.9594 919.53 88.0154L915.09 96.9302C915.57 97.6216 916.23 97.9673 917.07 97.9673Z" fill="url(#paint63_linear_175_198)"/>
<path d="M918.27 120.601H921.21V121.658H913.59V120.601H916.99V109.392L913.75 111.327L913.19 110.429L917.19 107.956H918.27V120.601Z" fill="url(#paint64_linear_175_198)"/>
<path d="M917.07 130.55C918.497 130.55 919.577 131.155 920.31 132.365C921.057 133.561 921.43 135.303 921.43 137.59C921.43 139.877 921.057 141.625 920.31 142.835C919.577 144.045 918.497 144.65 917.07 144.65C915.657 144.65 914.577 144.045 913.83 142.835C913.084 141.625 912.71 139.877 912.71 137.59C912.71 135.316 913.084 133.574 913.83 132.365C914.577 131.155 915.657 130.55 917.07 130.55ZM914.13 137.59C914.13 139.212 914.277 140.482 914.57 141.399L919.01 132.564C918.543 131.939 917.897 131.627 917.07 131.627C916.15 131.627 915.43 132.119 914.91 133.102C914.39 134.073 914.13 135.569 914.13 137.59ZM917.07 143.553C918.003 143.553 918.73 143.068 919.25 142.097C919.77 141.113 920.03 139.611 920.03 137.59C920.03 135.875 919.863 134.545 919.53 133.601L915.09 142.516C915.57 143.207 916.23 143.553 917.07 143.553Z" fill="url(#paint65_linear_175_198)"/>
<path d="M918.27 166.186H921.21V167.243H913.59V166.186H916.99V154.978L913.75 156.912L913.19 156.015L917.19 153.542H918.27V166.186Z" fill="url(#paint66_linear_175_198)"/>
<path d="M917.07 176.135C918.497 176.135 919.577 176.74 920.31 177.95C921.057 179.147 921.43 180.888 921.43 183.175C921.43 185.462 921.057 187.211 920.31 188.421C919.577 189.63 918.497 190.235 917.07 190.235C915.657 190.235 914.577 189.63 913.83 188.421C913.084 187.211 912.71 185.462 912.71 183.175C912.71 180.902 913.084 179.16 913.83 177.95C914.577 176.74 915.657 176.135 917.07 176.135ZM914.13 183.175C914.13 184.797 914.277 186.067 914.57 186.985L919.01 178.15C918.543 177.525 917.897 177.212 917.07 177.212C916.15 177.212 915.43 177.704 914.91 178.688C914.39 179.659 914.13 181.154 914.13 183.175ZM917.07 189.139C918.003 189.139 918.73 188.653 919.25 187.683C919.77 186.699 920.03 185.196 920.03 183.175C920.03 181.46 919.863 180.131 919.53 179.187L915.09 188.101C915.57 188.793 916.23 189.139 917.07 189.139Z" fill="url(#paint67_linear_175_198)"/>
<path d="M917.07 198.928C918.497 198.928 919.577 199.533 920.31 200.743C921.057 201.94 921.43 203.681 921.43 205.968C921.43 208.255 921.057 210.003 920.31 211.213C919.577 212.423 918.497 213.028 917.07 213.028C915.657 213.028 914.577 212.423 913.83 211.213C913.084 210.003 912.71 208.255 912.71 205.968C912.71 203.695 913.084 201.953 913.83 200.743C914.577 199.533 915.657 198.928 917.07 198.928ZM914.13 205.968C914.13 207.59 914.277 208.86 914.57 209.777L919.01 200.942C918.543 200.317 917.897 200.005 917.07 200.005C916.15 200.005 915.43 200.497 914.91 201.481C914.39 202.451 914.13 203.947 914.13 205.968ZM917.07 211.931C918.003 211.931 918.73 211.446 919.25 210.475C919.77 209.492 920.03 207.989 920.03 205.968C920.03 204.253 919.863 202.923 919.53 201.979L915.09 210.894C915.57 211.586 916.23 211.931 917.07 211.931Z" fill="url(#paint68_linear_175_198)"/>
<path d="M918.27 234.565H921.21V235.622H913.59V234.565H916.99V223.356L913.75 225.291L913.19 224.393L917.19 221.92H918.27V234.565Z" fill="url(#paint69_linear_175_198)"/>
<path d="M917.07 244.514C918.497 244.514 919.577 245.119 920.31 246.329C921.057 247.525 921.43 249.267 921.43 251.554C921.43 253.841 921.057 255.589 920.31 256.799C919.577 258.009 918.497 258.614 917.07 258.614C915.657 258.614 914.577 258.009 913.83 256.799C913.084 255.589 912.71 253.841 912.71 251.554C912.71 249.28 913.084 247.538 913.83 246.329C914.577 245.119 915.657 244.514 917.07 244.514ZM914.13 251.554C914.13 253.176 914.277 254.446 914.57 255.363L919.01 246.528C918.543 245.903 917.897 245.591 917.07 245.591C916.15 245.591 915.43 246.083 914.91 247.066C914.39 248.037 914.13 249.533 914.13 251.554ZM917.07 257.517C918.003 257.517 918.73 257.032 919.25 256.061C919.77 255.077 920.03 253.575 920.03 251.554C920.03 249.839 919.863 248.509 919.53 247.565L915.09 256.48C915.57 257.171 916.23 257.517 917.07 257.517Z" fill="url(#paint70_linear_175_198)"/>
<path d="M918.27 280.15H921.21V281.207H913.59V280.15H916.99V268.942L913.75 270.876L913.19 269.979L917.19 267.506H918.27V280.15Z" fill="url(#paint71_linear_175_198)"/>
<path d="M918.27 302.943H921.21V304H913.59V302.943H916.99V291.735L913.75 293.669L913.19 292.772L917.19 290.299H918.27V302.943Z" fill="url(#paint72_linear_175_198)"/>
<path d="M861.36 39.3784C862.786 39.3784 863.866 39.9834 864.599 41.1933C865.346 42.3899 865.719 44.1317 865.719 46.4185C865.719 48.7054 865.346 50.4538 864.599 51.6637C863.866 52.8736 862.786 53.4786 861.36 53.4786C859.946 53.4786 858.867 52.8736 858.12 51.6637C857.373 50.4538 857 48.7054 857 46.4185C857 44.145 857.373 42.4032 858.12 41.1933C858.867 39.9834 859.946 39.3784 861.36 39.3784ZM858.42 46.4185C858.42 48.0406 858.567 49.3104 858.86 50.2278L863.3 41.3927C862.833 40.7678 862.186 40.4554 861.36 40.4554C860.44 40.4554 859.72 40.9473 859.2 41.9312C858.68 42.9018 858.42 44.3976 858.42 46.4185ZM861.36 52.3817C862.293 52.3817 863.02 51.8964 863.54 50.9258C864.06 49.9419 864.319 48.4395 864.319 46.4185C864.319 44.7034 864.153 43.3738 863.82 42.4298L859.38 51.3446C859.86 52.036 860.52 52.3817 861.36 52.3817Z" fill="url(#paint73_linear_175_198)"/>
<path d="M861.36 62.1712C862.786 62.1712 863.866 62.7762 864.599 63.9861C865.346 65.1827 865.719 66.9245 865.719 69.2113C865.719 71.4982 865.346 73.2466 864.599 74.4565C863.866 75.6664 862.786 76.2714 861.36 76.2714C859.946 76.2714 858.867 75.6664 858.12 74.4565C857.373 73.2466 857 71.4982 857 69.2113C857 66.9378 857.373 65.196 858.12 63.9861C858.867 62.7762 859.946 62.1712 861.36 62.1712ZM858.42 69.2113C858.42 70.8334 858.567 72.1032 858.86 73.0206L863.3 64.1855C862.833 63.5606 862.186 63.2482 861.36 63.2482C860.44 63.2482 859.72 63.7401 859.2 64.724C858.68 65.6946 858.42 67.1904 858.42 69.2113ZM861.36 75.1745C862.293 75.1745 863.02 74.6892 863.54 73.7186C864.06 72.7347 864.319 71.2323 864.319 69.2113C864.319 67.4962 864.153 66.1666 863.82 65.2226L859.38 74.1374C859.86 74.8288 860.52 75.1745 861.36 75.1745Z" fill="url(#paint74_linear_175_198)"/>
<path d="M862.56 97.8078H865.499V98.8648H857.88V97.8078H861.28V86.5994L858.04 88.5339L857.48 87.6365L861.48 85.1635H862.56V97.8078Z" fill="url(#paint75_linear_175_198)"/>
<path d="M861.36 107.757C862.786 107.757 863.866 108.362 864.599 109.572C865.346 110.768 865.719 112.51 865.719 114.797C865.719 117.084 865.346 118.832 864.599 120.042C863.866 121.252 862.786 121.857 861.36 121.857C859.946 121.857 858.867 121.252 858.12 120.042C857.373 118.832 857 117.084 857 114.797C857 112.523 857.373 110.782 858.12 109.572C858.867 108.362 859.946 107.757 861.36 107.757ZM858.42 114.797C858.42 116.419 858.567 117.689 858.86 118.606L863.3 109.771C862.833 109.146 862.186 108.834 861.36 108.834C860.44 108.834 859.72 109.326 859.2 110.31C858.68 111.28 858.42 112.776 858.42 114.797ZM861.36 120.76C862.293 120.76 863.02 120.275 863.54 119.304C864.06 118.32 864.319 116.818 864.319 114.797C864.319 113.082 864.153 111.752 863.82 110.808L859.38 119.723C859.86 120.414 860.52 120.76 861.36 120.76Z" fill="url(#paint76_linear_175_198)"/>
<path d="M862.56 143.393H865.499V144.45H857.88V143.393H861.28V132.185L858.04 134.12L857.48 133.222L861.48 130.749H862.56V143.393Z" fill="url(#paint77_linear_175_198)"/>
<path d="M862.56 166.186H865.499V167.243H857.88V166.186H861.28V154.978L858.04 156.912L857.48 156.015L861.48 153.542H862.56V166.186Z" fill="url(#paint78_linear_175_198)"/>
<path d="M899.7 6.63655H902.64V7.69356H895.02V6.63655H898.42V-4.57181L895.18 -2.63727L894.62 -3.53474L898.62 -6.00776H899.7V6.63655Z" fill="url(#paint79_linear_175_198)"/>
<path d="M898.5 16.5856C899.927 16.5856 901.006 17.1906 901.74 18.4005C902.486 19.5971 902.86 21.3389 902.86 23.6257C902.86 25.9126 902.486 27.661 901.74 28.8709C901.006 30.0808 899.927 30.6858 898.5 30.6858C897.087 30.6858 896.007 30.0808 895.26 28.8709C894.514 27.661 894.14 25.9126 894.14 23.6257C894.14 21.3522 894.514 19.6104 895.26 18.4005C896.007 17.1906 897.087 16.5856 898.5 16.5856ZM895.56 23.6257C895.56 25.2478 895.707 26.5176 896 27.435L900.44 18.5999C899.973 17.975 899.327 17.6626 898.5 17.6626C897.58 17.6626 896.86 18.1545 896.34 19.1384C895.82 20.109 895.56 21.6048 895.56 23.6257ZM898.5 29.5889C899.433 29.5889 900.16 29.1036 900.68 28.133C901.2 27.1491 901.46 25.6467 901.46 23.6257C901.46 21.9106 901.293 20.581 900.96 19.637L896.52 28.5518C897 29.2432 897.66 29.5889 898.5 29.5889Z" fill="url(#paint80_linear_175_198)"/>
<path d="M899.7 52.2221H902.64V53.2792H895.02V52.2221H898.42V41.0138L895.18 42.9483L894.62 42.0509L898.62 39.5778H899.7V52.2221Z" fill="url(#paint81_linear_175_198)"/>
<path d="M899.7 75.015H902.64V76.072H895.02V75.015H898.42V63.8066L895.18 65.7411L894.62 64.8437L898.62 62.3706H899.7V75.015Z" fill="url(#paint82_linear_175_198)"/>
<path d="M898.5 84.964C899.927 84.964 901.006 85.569 901.74 86.7789C902.486 87.9755 902.86 89.7173 902.86 92.0041C902.86 94.291 902.486 96.0394 901.74 97.2493C901.006 98.4593 899.927 99.0642 898.5 99.0642C897.087 99.0642 896.007 98.4593 895.26 97.2493C894.514 96.0394 894.14 94.291 894.14 92.0041C894.14 89.7306 894.514 87.9888 895.26 86.7789C896.007 85.569 897.087 84.964 898.5 84.964ZM895.56 92.0041C895.56 93.6262 895.707 94.896 896 95.8134L900.44 86.9783C899.973 86.3534 899.327 86.041 898.5 86.041C897.58 86.041 896.86 86.5329 896.34 87.5168C895.82 88.4874 895.56 89.9832 895.56 92.0041ZM898.5 97.9673C899.433 97.9673 900.16 97.482 900.68 96.5114C901.2 95.5275 901.46 94.0251 901.46 92.0041C901.46 90.289 901.293 88.9594 900.96 88.0154L896.52 96.9302C897 97.6216 897.66 97.9673 898.5 97.9673Z" fill="url(#paint83_linear_175_198)"/>
<path d="M899.7 120.601H902.64V121.658H895.02V120.601H898.42V109.392L895.18 111.327L894.62 110.429L898.62 107.956H899.7V120.601Z" fill="url(#paint84_linear_175_198)"/>
<path d="M899.7 143.393H902.64V144.45H895.02V143.393H898.42V132.185L895.18 134.12L894.62 133.222L898.62 130.749H899.7V143.393Z" fill="url(#paint85_linear_175_198)"/>
<path d="M898.5 153.342C899.927 153.342 901.006 153.947 901.74 155.157C902.486 156.354 902.86 158.096 902.86 160.383C902.86 162.669 902.486 164.418 901.74 165.628C901.006 166.838 899.927 167.443 898.5 167.443C897.087 167.443 896.007 166.838 895.26 165.628C894.514 164.418 894.14 162.669 894.14 160.383C894.14 158.109 894.514 156.367 895.26 155.157C896.007 153.947 897.087 153.342 898.5 153.342ZM895.56 160.383C895.56 162.005 895.707 163.274 896 164.192L900.44 155.357C899.973 154.732 899.327 154.419 898.5 154.419C897.58 154.419 896.86 154.911 896.34 155.895C895.82 156.866 895.56 158.362 895.56 160.383ZM898.5 166.346C899.433 166.346 900.16 165.86 900.68 164.89C901.2 163.906 901.46 162.404 901.46 160.383C901.46 158.667 901.293 157.338 900.96 156.394L896.52 165.309C897 166 897.66 166.346 898.5 166.346Z" fill="url(#paint86_linear_175_198)"/>
<path d="M899.7 188.979H902.64V190.036H895.02V188.979H898.42V177.771L895.18 179.705L894.62 178.808L898.62 176.335H899.7V188.979Z" fill="url(#paint87_linear_175_198)"/>
<path d="M898.5 198.928C899.927 198.928 901.006 199.533 901.74 200.743C902.486 201.94 902.86 203.681 902.86 205.968C902.86 208.255 902.486 210.003 901.74 211.213C901.006 212.423 899.927 213.028 898.5 213.028C897.087 213.028 896.007 212.423 895.26 211.213C894.514 210.003 894.14 208.255 894.14 205.968C894.14 203.695 894.514 201.953 895.26 200.743C896.007 199.533 897.087 198.928 898.5 198.928ZM895.56 205.968C895.56 207.59 895.707 208.86 896 209.777L900.44 200.942C899.973 200.317 899.327 200.005 898.5 200.005C897.58 200.005 896.86 200.497 896.34 201.481C895.82 202.451 895.56 203.947 895.56 205.968ZM898.5 211.931C899.433 211.931 900.16 211.446 900.68 210.475C901.2 209.492 901.46 207.989 901.46 205.968C901.46 204.253 901.293 202.923 900.96 201.979L896.52 210.894C897 211.586 897.66 211.931 898.5 211.931Z" fill="url(#paint88_linear_175_198)"/>
<path d="M935.64 -6.2072C937.067 -6.2072 938.147 -5.60224 938.88 -4.39232C939.627 -3.1957 940 -1.45395 940 0.832928C940 3.11981 939.627 4.86821 938.88 6.07812C938.147 7.28804 937.067 7.893 935.64 7.893C934.227 7.893 933.147 7.28804 932.401 6.07812C931.654 4.86821 931.281 3.11981 931.281 0.832928C931.281 -1.44065 931.654 -3.1824 932.401 -4.39232C933.147 -5.60224 934.227 -6.2072 935.64 -6.2072ZM932.7 0.832928C932.7 2.45502 932.847 3.72477 933.14 4.64218L937.58 -4.19288C937.114 -4.81779 936.467 -5.13024 935.64 -5.13024C934.72 -5.13024 934 -4.63829 933.48 -3.6544C932.96 -2.68381 932.7 -1.18803 932.7 0.832928ZM935.64 6.7961C936.574 6.7961 937.3 6.3108 937.82 5.34021C938.34 4.35632 938.6 2.85389 938.6 0.832928C938.6 -0.88223 938.433 -2.21181 938.1 -3.15581L933.66 5.75902C934.14 6.4504 934.8 6.7961 935.64 6.7961Z" fill="url(#paint89_linear_175_198)"/>
<path d="M936.84 29.4293H939.78V30.4864H932.161V29.4293H935.56V18.221L932.321 20.1555L931.761 19.2581L935.76 16.785H936.84V29.4293Z" fill="url(#paint90_linear_175_198)"/>
<path d="M936.84 52.2221H939.78V53.2792H932.161V52.2221H935.56V41.0138L932.321 42.9483L931.761 42.0509L935.76 39.5778H936.84V52.2221Z" fill="url(#paint91_linear_175_198)"/>
<path d="M935.64 62.1712C937.067 62.1712 938.147 62.7762 938.88 63.9861C939.627 65.1827 940 66.9245 940 69.2113C940 71.4982 939.627 73.2466 938.88 74.4565C938.147 75.6664 937.067 76.2714 935.64 76.2714C934.227 76.2714 933.147 75.6664 932.401 74.4565C931.654 73.2466 931.281 71.4982 931.281 69.2113C931.281 66.9378 931.654 65.196 932.401 63.9861C933.147 62.7762 934.227 62.1712 935.64 62.1712ZM932.7 69.2113C932.7 70.8334 932.847 72.1032 933.14 73.0206L937.58 64.1855C937.114 63.5606 936.467 63.2482 935.64 63.2482C934.72 63.2482 934 63.7401 933.48 64.724C932.96 65.6946 932.7 67.1904 932.7 69.2113ZM935.64 75.1745C936.574 75.1745 937.3 74.6892 937.82 73.7186C938.34 72.7347 938.6 71.2323 938.6 69.2113C938.6 67.4962 938.433 66.1666 938.1 65.2226L933.66 74.1374C934.14 74.8288 934.8 75.1745 935.64 75.1745Z" fill="url(#paint92_linear_175_198)"/>
<path d="M935.64 84.964C937.067 84.964 938.147 85.569 938.88 86.7789C939.627 87.9755 940 89.7173 940 92.0041C940 94.291 939.627 96.0394 938.88 97.2493C938.147 98.4593 937.067 99.0642 935.64 99.0642C934.227 99.0642 933.147 98.4593 932.401 97.2493C931.654 96.0394 931.281 94.291 931.281 92.0041C931.281 89.7306 931.654 87.9888 932.401 86.7789C933.147 85.569 934.227 84.964 935.64 84.964ZM932.7 92.0041C932.7 93.6262 932.847 94.896 933.14 95.8134L937.58 86.9783C937.114 86.3534 936.467 86.041 935.64 86.041C934.72 86.041 934 86.5329 933.48 87.5168C932.96 88.4874 932.7 89.9832 932.7 92.0041ZM935.64 97.9673C936.574 97.9673 937.3 97.482 937.82 96.5114C938.34 95.5275 938.6 94.0251 938.6 92.0041C938.6 90.289 938.433 88.9594 938.1 88.0154L933.66 96.9302C934.14 97.6216 934.8 97.9673 935.64 97.9673Z" fill="url(#paint93_linear_175_198)"/>
</g>
<defs>
<filter id="filter0_f_175_198" x="-598.19" y="-715.19" width="2141.38" height="1500.38" filterUnits="userSpaceOnUse" color-interpolation-filters="sRGB">
<feFlood flood-opacity="0" result="BackgroundImageFix"/>
<feBlend mode="normal" in="SourceGraphic" in2="BackgroundImageFix" result="shape"/>
<feGaussianBlur stdDeviation="200.095" result="effect1_foregroundBlur_175_198"/>
</filter>
<linearGradient id="paint0_linear_175_198" x1="12.5" y1="271" x2="12.5" y2="582.381" gradientUnits="userSpaceOnUse">
<stop stop-color="#F7DD43"/>
<stop offset="1" stop-color="#F7DD43" stop-opacity="0"/>
</linearGradient>
<linearGradient id="paint1_linear_175_198" x1="12.5" y1="271" x2="12.5" y2="582.381" gradientUnits="userSpaceOnUse">
<stop stop-color="#F7DD43"/>
<stop offset="1" stop-color="#F7DD43" stop-opacity="0"/>
</linearGradient>
<linearGradient id="paint2_linear_175_198" x1="12.5" y1="271" x2="12.5" y2="582.381" gradientUnits="userSpaceOnUse">
<stop stop-color="#F7DD43"/>
<stop offset="1" stop-color="#F7DD43" stop-opacity="0"/>
</linearGradient>
<linearGradient id="paint3_linear_175_198" x1="12.5" y1="271" x2="12.5" y2="582.381" gradientUnits="userSpaceOnUse">
<stop stop-color="#F7DD43"/>
<stop offset="1" stop-color="#F7DD43" stop-opacity="0"/>
</linearGradient>
<linearGradient id="paint4_linear_175_198" x1="12.5" y1="271" x2="12.5" y2="582.381" gradientUnits="userSpaceOnUse">
<stop stop-color="#F7DD43"/>
<stop offset="1" stop-color="#F7DD43" stop-opacity="0"/>
</linearGradient>
<linearGradient id="paint5_linear_175_198" x1="12.5" y1="271" x2="12.5" y2="582.381" gradientUnits="userSpaceOnUse">
<stop stop-color="#F7DD43"/>
<stop offset="1" stop-color="#F7DD43" stop-opacity="0"/>
</linearGradient>
<linearGradient id="paint6_linear_175_198" x1="12.5" y1="271" x2="12.5" y2="582.381" gradientUnits="userSpaceOnUse">
<stop stop-color="#F7DD43"/>
<stop offset="1" stop-color="#F7DD43" stop-opacity="0"/>
</linearGradient>
<linearGradient id="paint7_linear_175_198" x1="12.5" y1="271" x2="12.5" y2="582.381" gradientUnits="userSpaceOnUse">
<stop stop-color="#F7DD43"/>
<stop offset="1" stop-color="#F7DD43" stop-opacity="0"/>
</linearGradient>
<linearGradient id="paint8_linear_175_198" x1="12.5" y1="271" x2="12.5" y2="582.381" gradientUnits="userSpaceOnUse">
<stop stop-color="#F7DD43"/>
<stop offset="1" stop-color="#F7DD43" stop-opacity="0"/>
</linearGradient>
<linearGradient id="paint9_linear_175_198" x1="12.5" y1="271" x2="12.5" y2="582.381" gradientUnits="userSpaceOnUse">
<stop stop-color="#F7DD43"/>
<stop offset="1" stop-color="#F7DD43" stop-opacity="0"/>
</linearGradient>
<linearGradient id="paint10_linear_175_198" x1="12.5" y1="271" x2="12.5" y2="582.381" gradientUnits="userSpaceOnUse">
<stop stop-color="#F7DD43"/>
<stop offset="1" stop-color="#F7DD43" stop-opacity="0"/>
</linearGradient>
<linearGradient id="paint11_linear_175_198" x1="12.5" y1="271" x2="12.5" y2="582.381" gradientUnits="userSpaceOnUse">
<stop stop-color="#F7DD43"/>
<stop offset="1" stop-color="#F7DD43" stop-opacity="0"/>
</linearGradient>
<linearGradient id="paint12_linear_175_198" x1="12.5" y1="271" x2="12.5" y2="582.381" gradientUnits="userSpaceOnUse">
<stop stop-color="#F7DD43"/>
<stop offset="1" stop-color="#F7DD43" stop-opacity="0"/>
</linearGradient>
<linearGradient id="paint13_linear_175_198" x1="12.5" y1="271" x2="12.5" y2="582.381" gradientUnits="userSpaceOnUse">
<stop stop-color="#F7DD43"/>
<stop offset="1" stop-color="#F7DD43" stop-opacity="0"/>
</linearGradient>
<linearGradient id="paint14_linear_175_198" x1="12.5" y1="271" x2="12.5" y2="582.381" gradientUnits="userSpaceOnUse">
<stop stop-color="#F7DD43"/>
<stop offset="1" stop-color="#F7DD43" stop-opacity="0"/>
</linearGradient>
<linearGradient id="paint15_linear_175_198" x1="12.5" y1="271" x2="12.5" y2="582.381" gradientUnits="userSpaceOnUse">
<stop stop-color="#F7DD43"/>
<stop offset="1" stop-color="#F7DD43" stop-opacity="0"/>
</linearGradient>
<linearGradient id="paint16_linear_175_198" x1="12.5" y1="271" x2="12.5" y2="582.381" gradientUnits="userSpaceOnUse">
<stop stop-color="#F7DD43"/>
<stop offset="1" stop-color="#F7DD43" stop-opacity="0"/>
</linearGradient>
<linearGradient id="paint17_linear_175_198" x1="12.5" y1="271" x2="12.5" y2="582.381" gradientUnits="userSpaceOnUse">
<stop stop-color="#F7DD43"/>
<stop offset="1" stop-color="#F7DD43" stop-opacity="0"/>
</linearGradient>
<linearGradient id="paint18_linear_175_198" x1="12.5" y1="271" x2="12.5" y2="582.381" gradientUnits="userSpaceOnUse">
<stop stop-color="#F7DD43"/>
<stop offset="1" stop-color="#F7DD43" stop-opacity="0"/>
</linearGradient>
<linearGradient id="paint19_linear_175_198" x1="12.5" y1="271" x2="12.5" y2="582.381" gradientUnits="userSpaceOnUse">
<stop stop-color="#F7DD43"/>
<stop offset="1" stop-color="#F7DD43" stop-opacity="0"/>
</linearGradient>
<linearGradient id="paint20_linear_175_198" x1="12.5" y1="271" x2="12.5" y2="582.381" gradientUnits="userSpaceOnUse">
<stop stop-color="#F7DD43"/>
<stop offset="1" stop-color="#F7DD43" stop-opacity="0"/>
</linearGradient>
<linearGradient id="paint21_linear_175_198" x1="12.5" y1="271" x2="12.5" y2="582.381" gradientUnits="userSpaceOnUse">
<stop stop-color="#F7DD43"/>
<stop offset="1" stop-color="#F7DD43" stop-opacity="0"/>
</linearGradient>
<linearGradient id="paint22_linear_175_198" x1="12.5" y1="271" x2="12.5" y2="582.381" gradientUnits="userSpaceOnUse">
<stop stop-color="#F7DD43"/>
<stop offset="1" stop-color="#F7DD43" stop-opacity="0"/>
</linearGradient>
<linearGradient id="paint23_linear_175_198" x1="12.5" y1="271" x2="12.5" y2="582.381" gradientUnits="userSpaceOnUse">
<stop stop-color="#F7DD43"/>
<stop offset="1" stop-color="#F7DD43" stop-opacity="0"/>
</linearGradient>
<linearGradient id="paint24_linear_175_198" x1="12.5" y1="271" x2="12.5" y2="582.381" gradientUnits="userSpaceOnUse">
<stop stop-color="#F7DD43"/>
<stop offset="1" stop-color="#F7DD43" stop-opacity="0"/>
</linearGradient>
<linearGradient id="paint25_linear_175_198" x1="12.5" y1="271" x2="12.5" y2="582.381" gradientUnits="userSpaceOnUse">
<stop stop-color="#F7DD43"/>
<stop offset="1" stop-color="#F7DD43" stop-opacity="0"/>
</linearGradient>
<linearGradient id="paint26_linear_175_198" x1="12.5" y1="271" x2="12.5" y2="582.381" gradientUnits="userSpaceOnUse">
<stop stop-color="#F7DD43"/>
<stop offset="1" stop-color="#F7DD43" stop-opacity="0"/>
</linearGradient>
<linearGradient id="paint27_linear_175_198" x1="12.5" y1="271" x2="12.5" y2="582.381" gradientUnits="userSpaceOnUse">
<stop stop-color="#F7DD43"/>
<stop offset="1" stop-color="#F7DD43" stop-opacity="0"/>
</linearGradient>
<linearGradient id="paint28_linear_175_198" x1="12.5" y1="271" x2="12.5" y2="582.381" gradientUnits="userSpaceOnUse">
<stop stop-color="#F7DD43"/>
<stop offset="1" stop-color="#F7DD43" stop-opacity="0"/>
</linearGradient>
<linearGradient id="paint29_linear_175_198" x1="12.5" y1="271" x2="12.5" y2="582.381" gradientUnits="userSpaceOnUse">
<stop stop-color="#F7DD43"/>
<stop offset="1" stop-color="#F7DD43" stop-opacity="0"/>
</linearGradient>
<linearGradient id="paint30_linear_175_198" x1="12.5" y1="271" x2="12.5" y2="582.381" gradientUnits="userSpaceOnUse">
<stop stop-color="#F7DD43"/>
<stop offset="1" stop-color="#F7DD43" stop-opacity="0"/>
</linearGradient>
<linearGradient id="paint31_linear_175_198" x1="12.5" y1="271" x2="12.5" y2="582.381" gradientUnits="userSpaceOnUse">
<stop stop-color="#F7DD43"/>
<stop offset="1" stop-color="#F7DD43" stop-opacity="0"/>
</linearGradient>
<linearGradient id="paint32_linear_175_198" x1="12.5" y1="271" x2="12.5" y2="582.381" gradientUnits="userSpaceOnUse">
<stop stop-color="#F7DD43"/>
<stop offset="1" stop-color="#F7DD43" stop-opacity="0"/>
</linearGradient>
<linearGradient id="paint33_linear_175_198" x1="12.5" y1="271" x2="12.5" y2="582.381" gradientUnits="userSpaceOnUse">
<stop stop-color="#F7DD43"/>
<stop offset="1" stop-color="#F7DD43" stop-opacity="0"/>
</linearGradient>
<linearGradient id="paint34_linear_175_198" x1="12.5" y1="271" x2="12.5" y2="582.381" gradientUnits="userSpaceOnUse">
<stop stop-color="#F7DD43"/>
<stop offset="1" stop-color="#F7DD43" stop-opacity="0"/>
</linearGradient>
<linearGradient id="paint35_linear_175_198" x1="12.5" y1="271" x2="12.5" y2="582.381" gradientUnits="userSpaceOnUse">
<stop stop-color="#F7DD43"/>
<stop offset="1" stop-color="#F7DD43" stop-opacity="0"/>
</linearGradient>
<linearGradient id="paint36_linear_175_198" x1="12.5" y1="271" x2="12.5" y2="582.381" gradientUnits="userSpaceOnUse">
<stop stop-color="#F7DD43"/>
<stop offset="1" stop-color="#F7DD43" stop-opacity="0"/>
</linearGradient>
<linearGradient id="paint37_linear_175_198" x1="12.5" y1="271" x2="12.5" y2="582.381" gradientUnits="userSpaceOnUse">
<stop stop-color="#F7DD43"/>
<stop offset="1" stop-color="#F7DD43" stop-opacity="0"/>
</linearGradient>
<linearGradient id="paint38_linear_175_198" x1="12.5" y1="271" x2="12.5" y2="582.381" gradientUnits="userSpaceOnUse">
<stop stop-color="#F7DD43"/>
<stop offset="1" stop-color="#F7DD43" stop-opacity="0"/>
</linearGradient>
<linearGradient id="paint39_linear_175_198" x1="12.5" y1="271" x2="12.5" y2="582.381" gradientUnits="userSpaceOnUse">
<stop stop-color="#F7DD43"/>
<stop offset="1" stop-color="#F7DD43" stop-opacity="0"/>
</linearGradient>
<linearGradient id="paint40_linear_175_198" x1="12.5" y1="271" x2="12.5" y2="582.381" gradientUnits="userSpaceOnUse">
<stop stop-color="#F7DD43"/>
<stop offset="1" stop-color="#F7DD43" stop-opacity="0"/>
</linearGradient>
<linearGradient id="paint41_linear_175_198" x1="12.5" y1="271" x2="12.5" y2="582.381" gradientUnits="userSpaceOnUse">
<stop stop-color="#F7DD43"/>
<stop offset="1" stop-color="#F7DD43" stop-opacity="0"/>
</linearGradient>
<linearGradient id="paint42_linear_175_198" x1="12.5" y1="271" x2="12.5" y2="582.381" gradientUnits="userSpaceOnUse">
<stop stop-color="#F7DD43"/>
<stop offset="1" stop-color="#F7DD43" stop-opacity="0"/>
</linearGradient>
<linearGradient id="paint43_linear_175_198" x1="12.5" y1="271" x2="12.5" y2="582.381" gradientUnits="userSpaceOnUse">
<stop stop-color="#F7DD43"/>
<stop offset="1" stop-color="#F7DD43" stop-opacity="0"/>
</linearGradient>
<linearGradient id="paint44_linear_175_198" x1="12.5" y1="271" x2="12.5" y2="582.381" gradientUnits="userSpaceOnUse">
<stop stop-color="#F7DD43"/>
<stop offset="1" stop-color="#F7DD43" stop-opacity="0"/>
</linearGradient>
<linearGradient id="paint45_linear_175_198" x1="12.5" y1="271" x2="12.5" y2="582.381" gradientUnits="userSpaceOnUse">
<stop stop-color="#F7DD43"/>
<stop offset="1" stop-color="#F7DD43" stop-opacity="0"/>
</linearGradient>
<linearGradient id="paint46_linear_175_198" x1="12.5" y1="271" x2="12.5" y2="582.381" gradientUnits="userSpaceOnUse">
<stop stop-color="#F7DD43"/>
<stop offset="1" stop-color="#F7DD43" stop-opacity="0"/>
</linearGradient>
<linearGradient id="paint47_linear_175_198" x1="898.5" y1="-29" x2="898.5" y2="269.818" gradientUnits="userSpaceOnUse">
<stop stop-color="#F7DD43"/>
<stop offset="1" stop-color="#F7DD43" stop-opacity="0"/>
</linearGradient>
<linearGradient id="paint48_linear_175_198" x1="898.5" y1="-29" x2="898.5" y2="269.818" gradientUnits="userSpaceOnUse">
<stop stop-color="#F7DD43"/>
<stop offset="1" stop-color="#F7DD43" stop-opacity="0"/>
</linearGradient>
<linearGradient id="paint49_linear_175_198" x1="898.5" y1="-29" x2="898.5" y2="269.818" gradientUnits="userSpaceOnUse">
<stop stop-color="#F7DD43"/>
<stop offset="1" stop-color="#F7DD43" stop-opacity="0"/>
</linearGradient>
<linearGradient id="paint50_linear_175_198" x1="898.5" y1="-29" x2="898.5" y2="269.818" gradientUnits="userSpaceOnUse">
<stop stop-color="#F7DD43"/>
<stop offset="1" stop-color="#F7DD43" stop-opacity="0"/>
</linearGradient>
<linearGradient id="paint51_linear_175_198" x1="898.5" y1="-29" x2="898.5" y2="269.818" gradientUnits="userSpaceOnUse">
<stop stop-color="#F7DD43"/>
<stop offset="1" stop-color="#F7DD43" stop-opacity="0"/>
</linearGradient>
<linearGradient id="paint52_linear_175_198" x1="898.5" y1="-29" x2="898.5" y2="269.818" gradientUnits="userSpaceOnUse">
<stop stop-color="#F7DD43"/>
<stop offset="1" stop-color="#F7DD43" stop-opacity="0"/>
</linearGradient>
<linearGradient id="paint53_linear_175_198" x1="898.5" y1="-29" x2="898.5" y2="269.818" gradientUnits="userSpaceOnUse">
<stop stop-color="#F7DD43"/>
<stop offset="1" stop-color="#F7DD43" stop-opacity="0"/>
</linearGradient>
<linearGradient id="paint54_linear_175_198" x1="898.5" y1="-29" x2="898.5" y2="269.818" gradientUnits="userSpaceOnUse">
<stop stop-color="#F7DD43"/>
<stop offset="1" stop-color="#F7DD43" stop-opacity="0"/>
</linearGradient>
<linearGradient id="paint55_linear_175_198" x1="898.5" y1="-29" x2="898.5" y2="269.818" gradientUnits="userSpaceOnUse">
<stop stop-color="#F7DD43"/>
<stop offset="1" stop-color="#F7DD43" stop-opacity="0"/>
</linearGradient>
<linearGradient id="paint56_linear_175_198" x1="898.5" y1="-29" x2="898.5" y2="269.818" gradientUnits="userSpaceOnUse">
<stop stop-color="#F7DD43"/>
<stop offset="1" stop-color="#F7DD43" stop-opacity="0"/>
</linearGradient>
<linearGradient id="paint57_linear_175_198" x1="898.5" y1="-29" x2="898.5" y2="269.818" gradientUnits="userSpaceOnUse">
<stop stop-color="#F7DD43"/>
<stop offset="1" stop-color="#F7DD43" stop-opacity="0"/>
</linearGradient>
<linearGradient id="paint58_linear_175_198" x1="898.5" y1="-29" x2="898.5" y2="269.818" gradientUnits="userSpaceOnUse">
<stop stop-color="#F7DD43"/>
<stop offset="1" stop-color="#F7DD43" stop-opacity="0"/>
</linearGradient>
<linearGradient id="paint59_linear_175_198" x1="898.5" y1="-29" x2="898.5" y2="269.818" gradientUnits="userSpaceOnUse">
<stop stop-color="#F7DD43"/>
<stop offset="1" stop-color="#F7DD43" stop-opacity="0"/>
</linearGradient>
<linearGradient id="paint60_linear_175_198" x1="898.5" y1="-29" x2="898.5" y2="269.818" gradientUnits="userSpaceOnUse">
<stop stop-color="#F7DD43"/>
<stop offset="1" stop-color="#F7DD43" stop-opacity="0"/>
</linearGradient>
<linearGradient id="paint61_linear_175_198" x1="898.5" y1="-29" x2="898.5" y2="269.818" gradientUnits="userSpaceOnUse">
<stop stop-color="#F7DD43"/>
<stop offset="1" stop-color="#F7DD43" stop-opacity="0"/>
</linearGradient>
<linearGradient id="paint62_linear_175_198" x1="898.5" y1="-29" x2="898.5" y2="269.818" gradientUnits="userSpaceOnUse">
<stop stop-color="#F7DD43"/>
<stop offset="1" stop-color="#F7DD43" stop-opacity="0"/>
</linearGradient>
<linearGradient id="paint63_linear_175_198" x1="898.5" y1="-29" x2="898.5" y2="269.818" gradientUnits="userSpaceOnUse">
<stop stop-color="#F7DD43"/>
<stop offset="1" stop-color="#F7DD43" stop-opacity="0"/>
</linearGradient>
<linearGradient id="paint64_linear_175_198" x1="898.5" y1="-29" x2="898.5" y2="269.818" gradientUnits="userSpaceOnUse">
<stop stop-color="#F7DD43"/>
<stop offset="1" stop-color="#F7DD43" stop-opacity="0"/>
</linearGradient>
<linearGradient id="paint65_linear_175_198" x1="898.5" y1="-29" x2="898.5" y2="269.818" gradientUnits="userSpaceOnUse">
<stop stop-color="#F7DD43"/>
<stop offset="1" stop-color="#F7DD43" stop-opacity="0"/>
</linearGradient>
<linearGradient id="paint66_linear_175_198" x1="898.5" y1="-29" x2="898.5" y2="269.818" gradientUnits="userSpaceOnUse">
<stop stop-color="#F7DD43"/>
<stop offset="1" stop-color="#F7DD43" stop-opacity="0"/>
</linearGradient>
<linearGradient id="paint67_linear_175_198" x1="898.5" y1="-29" x2="898.5" y2="269.818" gradientUnits="userSpaceOnUse">
<stop stop-color="#F7DD43"/>
<stop offset="1" stop-color="#F7DD43" stop-opacity="0"/>
</linearGradient>
<linearGradient id="paint68_linear_175_198" x1="898.5" y1="-29" x2="898.5" y2="269.818" gradientUnits="userSpaceOnUse">
<stop stop-color="#F7DD43"/>
<stop offset="1" stop-color="#F7DD43" stop-opacity="0"/>
</linearGradient>
<linearGradient id="paint69_linear_175_198" x1="898.5" y1="-29" x2="898.5" y2="269.818" gradientUnits="userSpaceOnUse">
<stop stop-color="#F7DD43"/>
<stop offset="1" stop-color="#F7DD43" stop-opacity="0"/>
</linearGradient>
<linearGradient id="paint70_linear_175_198" x1="898.5" y1="-29" x2="898.5" y2="269.818" gradientUnits="userSpaceOnUse">
<stop stop-color="#F7DD43"/>
<stop offset="1" stop-color="#F7DD43" stop-opacity="0"/>
</linearGradient>
<linearGradient id="paint71_linear_175_198" x1="898.5" y1="-29" x2="898.5" y2="269.818" gradientUnits="userSpaceOnUse">
<stop stop-color="#F7DD43"/>
<stop offset="1" stop-color="#F7DD43" stop-opacity="0"/>
</linearGradient>
<linearGradient id="paint72_linear_175_198" x1="898.5" y1="-29" x2="898.5" y2="269.818" gradientUnits="userSpaceOnUse">
<stop stop-color="#F7DD43"/>
<stop offset="1" stop-color="#F7DD43" stop-opacity="0"/>
</linearGradient>
<linearGradient id="paint73_linear_175_198" x1="898.5" y1="-29" x2="898.5" y2="269.818" gradientUnits="userSpaceOnUse">
<stop stop-color="#F7DD43"/>
<stop offset="1" stop-color="#F7DD43" stop-opacity="0"/>
</linearGradient>
<linearGradient id="paint74_linear_175_198" x1="898.5" y1="-29" x2="898.5" y2="269.818" gradientUnits="userSpaceOnUse">
<stop stop-color="#F7DD43"/>
<stop offset="1" stop-color="#F7DD43" stop-opacity="0"/>
</linearGradient>
<linearGradient id="paint75_linear_175_198" x1="898.5" y1="-29" x2="898.5" y2="269.818" gradientUnits="userSpaceOnUse">
<stop stop-color="#F7DD43"/>
<stop offset="1" stop-color="#F7DD43" stop-opacity="0"/>
</linearGradient>
<linearGradient id="paint76_linear_175_198" x1="898.5" y1="-29" x2="898.5" y2="269.818" gradientUnits="userSpaceOnUse">
<stop stop-color="#F7DD43"/>
<stop offset="1" stop-color="#F7DD43" stop-opacity="0"/>
</linearGradient>
<linearGradient id="paint77_linear_175_198" x1="898.5" y1="-29" x2="898.5" y2="269.818" gradientUnits="userSpaceOnUse">
<stop stop-color="#F7DD43"/>
<stop offset="1" stop-color="#F7DD43" stop-opacity="0"/>
</linearGradient>
<linearGradient id="paint78_linear_175_198" x1="898.5" y1="-29" x2="898.5" y2="269.818" gradientUnits="userSpaceOnUse">
<stop stop-color="#F7DD43"/>
<stop offset="1" stop-color="#F7DD43" stop-opacity="0"/>
</linearGradient>
<linearGradient id="paint79_linear_175_198" x1="898.5" y1="-29" x2="898.5" y2="269.818" gradientUnits="userSpaceOnUse">
<stop stop-color="#F7DD43"/>
<stop offset="1" stop-color="#F7DD43" stop-opacity="0"/>
</linearGradient>
<linearGradient id="paint80_linear_175_198" x1="898.5" y1="-29" x2="898.5" y2="269.818" gradientUnits="userSpaceOnUse">
<stop stop-color="#F7DD43"/>
<stop offset="1" stop-color="#F7DD43" stop-opacity="0"/>
</linearGradient>
<linearGradient id="paint81_linear_175_198" x1="898.5" y1="-29" x2="898.5" y2="269.818" gradientUnits="userSpaceOnUse">
<stop stop-color="#F7DD43"/>
<stop offset="1" stop-color="#F7DD43" stop-opacity="0"/>
</linearGradient>
<linearGradient id="paint82_linear_175_198" x1="898.5" y1="-29" x2="898.5" y2="269.818" gradientUnits="userSpaceOnUse">
<stop stop-color="#F7DD43"/>
<stop offset="1" stop-color="#F7DD43" stop-opacity="0"/>
</linearGradient>
<linearGradient id="paint83_linear_175_198" x1="898.5" y1="-29" x2="898.5" y2="269.818" gradientUnits="userSpaceOnUse">
<stop stop-color="#F7DD43"/>
<stop offset="1" stop-color="#F7DD43" stop-opacity="0"/>
</linearGradient>
<linearGradient id="paint84_linear_175_198" x1="898.5" y1="-29" x2="898.5" y2="269.818" gradientUnits="userSpaceOnUse">
<stop stop-color="#F7DD43"/>
<stop offset="1" stop-color="#F7DD43" stop-opacity="0"/>
</linearGradient>
<linearGradient id="paint85_linear_175_198" x1="898.5" y1="-29" x2="898.5" y2="269.818" gradientUnits="userSpaceOnUse">
<stop stop-color="#F7DD43"/>
<stop offset="1" stop-color="#F7DD43" stop-opacity="0"/>
</linearGradient>
<linearGradient id="paint86_linear_175_198" x1="898.5" y1="-29" x2="898.5" y2="269.818" gradientUnits="userSpaceOnUse">
<stop stop-color="#F7DD43"/>
<stop offset="1" stop-color="#F7DD43" stop-opacity="0"/>
</linearGradient>
<linearGradient id="paint87_linear_175_198" x1="898.5" y1="-29" x2="898.5" y2="269.818" gradientUnits="userSpaceOnUse">
<stop stop-color="#F7DD43"/>
<stop offset="1" stop-color="#F7DD43" stop-opacity="0"/>
</linearGradient>
<linearGradient id="paint88_linear_175_198" x1="898.5" y1="-29" x2="898.5" y2="269.818" gradientUnits="userSpaceOnUse">
<stop stop-color="#F7DD43"/>
<stop offset="1" stop-color="#F7DD43" stop-opacity="0"/>
</linearGradient>
<linearGradient id="paint89_linear_175_198" x1="898.5" y1="-29" x2="898.5" y2="269.818" gradientUnits="userSpaceOnUse">
<stop stop-color="#F7DD43"/>
<stop offset="1" stop-color="#F7DD43" stop-opacity="0"/>
</linearGradient>
<linearGradient id="paint90_linear_175_198" x1="898.5" y1="-29" x2="898.5" y2="269.818" gradientUnits="userSpaceOnUse">
<stop stop-color="#F7DD43"/>
<stop offset="1" stop-color="#F7DD43" stop-opacity="0"/>
</linearGradient>
<linearGradient id="paint91_linear_175_198" x1="898.5" y1="-29" x2="898.5" y2="269.818" gradientUnits="userSpaceOnUse">
<stop stop-color="#F7DD43"/>
<stop offset="1" stop-color="#F7DD43" stop-opacity="0"/>
</linearGradient>
<linearGradient id="paint92_linear_175_198" x1="898.5" y1="-29" x2="898.5" y2="269.818" gradientUnits="userSpaceOnUse">
<stop stop-color="#F7DD43"/>
<stop offset="1" stop-color="#F7DD43" stop-opacity="0"/>
</linearGradient>
<linearGradient id="paint93_linear_175_198" x1="898.5" y1="-29" x2="898.5" y2="269.818" gradientUnits="userSpaceOnUse">
<stop stop-color="#F7DD43"/>
<stop offset="1" stop-color="#F7DD43" stop-opacity="0"/>
</linearGradient>
</defs>
</svg>
